<svg xmlns="http://www.w3.org/2000/svg" width="1080" height="1620" viewBox="0 0 1080 1620">
  <defs>
    <linearGradient id="bg" x1="0" y1="0" x2="1" y2="1"><stop offset="0" stop-color="#0a2038"/><stop offset=".48" stop-color="#174c66"/><stop offset="1" stop-color="#122036"/></linearGradient>
    <radialGradient id="sun" cx="72%" cy="23%" r="42%"><stop offset="0" stop-color="#fff5b9" stop-opacity=".95"/><stop offset=".3" stop-color="#f8c84a" stop-opacity=".5"/><stop offset="1" stop-color="#f8c84a" stop-opacity="0"/></radialGradient>
    <linearGradient id="yellow" x1="0" y1="0" x2="1" y2="0"><stop offset="0" stop-color="#ffe368"/><stop offset="1" stop-color="#ffad35"/></linearGradient>
    <filter id="shadow"><feDropShadow dx="0" dy="28" stdDeviation="24" flood-color="#000" flood-opacity=".48"/></filter>
  </defs>
  <rect width="1080" height="1620" fill="url(#bg)"/>
  <circle cx="820" cy="350" r="420" fill="url(#sun)"/>
  <path d="M0 1000 C180 900 340 965 500 895 C690 810 830 860 1080 760 V1620 H0Z" fill="#173547"/>
  <path d="M0 1100 C180 1015 340 1070 520 1000 C700 930 850 955 1080 890 V1620 H0Z" fill="#0c1f31"/>
  <g opacity=".9"><circle cx="130" cy="360" r="13" fill="#ffdf55"/><circle cx="920" cy="450" r="15" fill="#ff805e"/><circle cx="170" cy="620" r="10" fill="#80ddff"/><circle cx="880" cy="700" r="12" fill="#c58cff"/><rect x="850" y="300" width="18" height="48" rx="9" fill="#7de0a2" transform="rotate(28 859 324)"/><rect x="210" y="520" width="18" height="48" rx="9" fill="#ff9d59" transform="rotate(-22 219 544)"/></g>
  <g filter="url(#shadow)">
    <path d="M540 360 C690 360 800 480 795 635 C790 790 675 900 540 900 C405 900 290 790 285 635 C280 480 390 360 540 360Z" fill="#4e8da8"/>
    <path d="M540 350 L660 220 L645 405Z" fill="#6aaac3"/>
    <path d="M395 470 C430 415 480 390 540 390 C600 390 650 415 685 470 C650 450 615 445 575 448 C560 455 550 468 540 486 C530 468 520 455 505 448 C465 445 430 450 395 470Z" fill="#77b6cc"/>
    <path d="M355 615 C390 555 455 520 540 520 C625 520 690 555 725 615 C700 700 630 755 540 755 C450 755 380 700 355 615Z" fill="#162332"/>
    <path d="M400 616 C438 585 485 570 540 570 C595 570 642 585 680 616 C647 665 598 690 540 690 C482 690 433 665 400 616Z" fill="#e5795a"/>
    <g fill="#f5f1db"><path d="M415 585 l28 55 24-67Z"/><path d="M475 566 l28 65 25-70Z"/><path d="M535 562 l28 68 24-68Z"/><path d="M595 568 l28 64 24-67Z"/><path d="M655 586 l24 52 25-60Z"/></g>
    <ellipse cx="430" cy="500" rx="30" ry="38" fill="#fff"/><ellipse cx="650" cy="500" rx="30" ry="38" fill="#fff"/>
    <ellipse cx="438" cy="505" rx="14" ry="22" fill="#1c2731"/><ellipse cx="642" cy="505" rx="14" ry="22" fill="#1c2731"/>
    <ellipse cx="430" cy="795" rx="95" ry="48" fill="#3d7894" transform="rotate(-20 430 795)"/><ellipse cx="650" cy="795" rx="95" ry="48" fill="#3d7894" transform="rotate(20 650 795)"/>
    <path d="M520 780 C540 805 560 805 580 780 L590 900 L490 900Z" fill="#e46648"/>
  </g>
  <rect x="64" y="70" width="430" height="54" rx="27" fill="#f3bd24"/>
  <text x="279" y="107" text-anchor="middle" font-family="Arial,Helvetica,sans-serif" font-size="27" font-weight="900" fill="#172232">DIA COMUNITÁRIO CLÁSSICO</text>
  <text x="64" y="1110" font-family="Arial,Helvetica,sans-serif" font-size="108" font-weight="900" fill="#fff" letter-spacing="-4">GIBLE</text>
  <text x="66" y="1177" font-family="Arial,Helvetica,sans-serif" font-size="38" font-weight="700" fill="#92e8ff">12 DE SETEMBRO • EVENTO GLOBAL</text>
  <rect x="64" y="1230" width="952" height="250" rx="42" fill="#06111d" opacity=".93" stroke="#285b75" stroke-width="2"/>
  <text x="112" y="1310" font-family="Arial,Helvetica,sans-serif" font-size="32" font-weight="700" fill="#abc8d8">HORÁRIO LOCAL</text>
  <text x="112" y="1387" font-family="Arial,Helvetica,sans-serif" font-size="66" font-weight="900" fill="url(#yellow)">14:00 — 17:00</text>
  <text x="112" y="1450" font-family="Arial,Helvetica,sans-serif" font-size="30" font-weight="700" fill="#fff">Gible em destaque durante o evento</text>
  <text x="64" y="1552" font-family="Arial,Helvetica,sans-serif" font-size="24" font-weight="700" fill="#65cce9">SPIDEY EVENT ART • PREMIUM v1</text>
  <circle cx="994" cy="1538" r="9" fill="#f5c84f"/>
</svg>